<?xml version="1.0" encoding="UTF-8"?>
<svg width="258px" height="40px" viewBox="0 0 258 40" version="1.1" xmlns="http://www.w3.org/2000/svg" xmlns:xlink="http://www.w3.org/1999/xlink">
    <!-- Generator: Sketch 50.2 (55047) - http://www.bohemiancoding.com/sketch -->
    <title>logo-dian-istana</title>
    <desc>Created with Sketch.</desc>
    <defs></defs>
    <g id="Page-1" stroke="none" stroke-width="1" fill="none" fill-rule="evenodd">
        <g id="logo-dian-istana">
            <path d="M26.6321437,21.1361285 L12.8634188,7.34798504 C10.8425034,5.58523818 8.48153295,8.18887701 8.48153295,8.18887701 C11.2043747,5.15036315 9.02894344,3.31827678 9.02894344,3.31827678 L5.84975943,0 L4.22594177,1.41344402 C4.22594177,1.41344402 -0.491996115,5.301868 3.80942943,9.60993636 L20.964894,26.7864977 C20.964894,26.7864977 23.4089267,28.7548583 22.3455293,33 L24.7567374,30.5839386 C24.7567374,30.5839386 30.5686956,25.2349758 26.6321437,21.1361285" id="Fill-3" fill="#73BF43"></path>
            <path d="M15.6903328,32.8598054 L10.5350219,27.6682681 L7.15684983,24.2965518 C7.15684983,24.2965518 4.66979204,22.3022442 5.75268827,18 L3.30003722,20.4497198 C3.30003722,20.4497198 -2.6136471,25.8714007 1.39178635,30.0239398 L4.78278459,33.408047 L9.94847855,38.6115687 C14.1116944,42.6072933 19.5955998,36.7080593 19.5955998,36.7080593 L22,34.2611832 C17.6883669,35.3412131 15.6903328,32.8598054 15.6903328,32.8598054" id="Fill-6" fill="#73BF43"></path>
            <path d="M53.2846701,22.0323618 L54.9936355,22.0323618 C59.198336,22.0323618 61.6104142,24.3893772 61.6104142,28.5001015 C61.6104142,32.6102169 59.198336,34.9680441 54.9936355,34.9680441 L53.2846701,34.9680441 L53.2846701,22.0323618 Z M65,28.5001015 C65,22.8176954 61.0525694,19 55.177681,19 L50,19 L50,38 L55.177681,38 C61.0525694,38 65,34.1825076 65,28.5001015 Z" id="Fill-8" fill="#0E1C20"></path>
            <path d="M164.108089,26.8558321 L162.931914,26.3233273 C161.018441,25.4950526 160.465766,24.9260966 160.465766,23.7864017 C160.465766,22.6607722 161.290601,21.933927 162.56605,21.933927 C163.823993,21.933927 164.579793,22.3909539 165.259794,23.5639304 L165.386524,23.7820434 L168.017997,22.1720485 L167.901812,21.9664161 C166.760054,19.942581 165.064826,19 162.56605,19 C159.422089,19 157.22631,20.9899592 157.22631,23.8392956 C157.22631,26.8009572 158.979432,28.1829338 161.612298,29.3479861 L162.812546,29.8798966 C164.813954,30.7679988 165.707226,31.3991596 165.707226,32.7890605 C165.707226,34.1197281 164.541794,35.0133773 162.806577,35.0133773 C160.616369,35.0133773 159.614073,33.8574378 158.857676,32.6087854 L158.734329,32.4063227 L156,33.9089449 L156.104845,34.1197281 C156.823044,35.5684659 158.655546,38 162.859895,38 C166.589955,38 169,35.9444682 169,32.761722 C169,29.6279077 167.127709,28.1777831 164.108089,26.8558321" id="Fill-10" fill="#0E1C20"></path>
            <path d="M75.1504168,24.3055677 C77,24.3055677 77,22.2330581 77,22.2330581 L77,19 L76.7950344,19 C76.145705,19.0499204 74.1574846,19.3796794 74.0117796,21.5548708 L74,21.5548708 L74,38 L77,38 L77,26.3772656 C77,24.3055677 75.1504168,24.3055677 75.1504168,24.3055677" id="Fill-12" fill="#0E1C20"></path>
            <path d="M146.149831,24.3055677 C148,24.3055677 148,22.2328552 148,22.2328552 L148,19 L147.795372,19 C147.145239,19.0501234 145.15696,19.3792735 145.011237,21.554465 L145,21.554465 L145,38 L148,38 L148,26.3770627 C148,24.3055677 146.149831,24.3055677 146.149831,24.3055677" id="Fill-14" fill="#0E1C20"></path>
            <path d="M175,19 L175,22.0326874 L180.361281,22.0326874 L180.361281,37.9999693 C180.361281,37.9999693 183.397347,38.0375226 183.638125,35.4877511 L183.638125,22.0326874 L189,22.0326874 L189,19 L175,19 Z" id="Fill-16" fill="#0E1C20"></path>
            <polygon id="Fill-18" fill="#0E1C20" points="93.7299422 19 93.0767087 19 85 38 88.3016521 38 93.3555426 25.2344817 98.4791921 38 102 38"></polygon>
            <polygon id="Fill-20" fill="#0E1C20" points="249.729637 19 249.076008 19 241 38 244.301008 38 249.35504 25.2343499 254.478831 38 258 38"></polygon>
            <polygon id="Fill-22" fill="#0E1C20" points="202.730144 19 202.07691 19 194 38 197.301854 38 202.355139 25.2343499 207.478991 38 211 38"></polygon>
            <path d="M123.988241,19.186411 C123.794723,19.1872068 121.06832,19.2355503 120.888951,21.5604163 L120.888951,29.4069882 L120.888951,29.5981739 L120.888951,31.0765308 L109.728835,19 L109,19 L109,37.81339 L109.011559,37.81339 C109.20468,37.8129921 111.936065,37.7644497 112.112046,35.4336153 L112.112046,27.5665522 L112.112046,25.8689584 L123.298071,38 L124,38 L124,19.186411 L123.988241,19.186411 Z" id="Fill-24" fill="#0E1C20"></path>
            <path d="M232.988241,19.186807 C232.794723,19.1874038 230.068519,19.2357468 229.888353,21.5605885 L229.888353,29.4070782 L229.888353,29.5982619 L229.888353,31.0770012 L218.728835,19 L218,19 L218,37.8135909 L218.010961,37.8135909 C218.20468,37.8129941 220.936264,37.7646511 221.111647,35.4336422 L221.111647,27.5666614 L221.111647,25.8686875 L232.298071,38 L233,38 L233,19.186807 L232.988241,19.186807 Z" id="Fill-26" fill="#0E1C20"></path>
        </g>
    </g>
</svg>